<svg xmlns="http://www.w3.org/2000/svg" viewBox="0 0 149.34 54.69"><defs><style>.cls-1,.cls-2{fill:#56565a;}.cls-2{font-size:7.78px;font-family:MuseoSans-900, Museo Sans;}</style></defs><title>Automation Anywhere</title><g id="Layer_2" data-name="Layer 2"><g id="Layer_1-2" data-name="Layer 1"><path id="Std" class="cls-1" d="M52.13,46.43a6.08,6.08,0,0,0-.55-.84,1.4,1.4,0,0,0-.26-.34,33,33,0,0,0-11.17-6.86l-.26-.7h0L27.41,3.49A5.16,5.16,0,0,0,23,0a1.46,1.46,0,0,0-.29,0,1.37,1.37,0,0,0-.29,0A5.14,5.14,0,0,0,18.07,3.5L.08,52.91a1.32,1.32,0,0,0,.79,1.7,1.42,1.42,0,0,0,.45.08,1.34,1.34,0,0,0,1.06-.54L2.5,54a30.51,30.51,0,0,1,35.61-13.5L41.93,50.7l.12.21a5.53,5.53,0,1,0,10.08-4.48ZM28.75,36.37A33,33,0,0,0,12.1,40.86,33.4,33.4,0,0,0,5.41,46L20.55,4.4a2.51,2.51,0,0,1,2.17-1.75h0A2.53,2.53,0,0,1,24.93,4.4l12,33A33.08,33.08,0,0,0,28.75,36.37Zm18.5,15.56a2.89,2.89,0,0,1-2.74-2l0-.11-.14-.24-2.92-7.84a30.48,30.48,0,0,1,7.64,5h0a2.86,2.86,0,0,1,.76.92A2.83,2.83,0,0,1,50.14,49,2.89,2.89,0,0,1,47.25,51.93Z"/><path class="cls-1" d="M28.81,36.52A33,33,0,0,0,5.47,46.14l-3,8.15a1,1,0,0,0,.12-.16,30.46,30.46,0,0,1,26.25-15,31,31,0,0,1,9.37,1.46L37,37.54A33.43,33.43,0,0,0,28.81,36.52Zm23.38,10a5.19,5.19,0,0,0-.55-.83,1.1,1.1,0,0,0-.26-.35,33,33,0,0,0-11.17-6.86l1.26,3.37a30.48,30.48,0,0,1,7.64,5h0a2.76,2.76,0,0,1,.75.92,2.81,2.81,0,0,1,.35,1.36h2.64A5.53,5.53,0,0,0,52.19,46.57Z"/><path class="cls-1" d="M51.11,12.74h.82l5.33,11.52h-.93l-1.46-3.2H48.12l-1.46,3.2h-.88Zm3.4,7.55-3-6.62-3,6.62Z"/><path class="cls-1" d="M62.22,24.44a5.21,5.21,0,0,1-1.89-.32,4.06,4.06,0,0,1-1.49-.94,4.26,4.26,0,0,1-1-1.56,6,6,0,0,1-.35-2.11V12.82h.85v6.6a4.41,4.41,0,0,0,1,3.15,3.68,3.68,0,0,0,2.85,1.11A3.73,3.73,0,0,0,65,22.63a4.27,4.27,0,0,0,1-3.12V12.82h.85v6.59a6.44,6.44,0,0,1-.34,2.16,4.26,4.26,0,0,1-1,1.58,4,4,0,0,1-1.48,1A5.49,5.49,0,0,1,62.22,24.44Z"/><path class="cls-1" d="M71.91,13.59h-4v-.77h8.83v.77h-4V24.26h-.85Z"/><path class="cls-1" d="M82.78,24.46a5.62,5.62,0,0,1-4.17-1.77,5.76,5.76,0,0,1-1.16-1.88A6.19,6.19,0,0,1,77,18.57v0a6.14,6.14,0,0,1,1.59-4.14,5.7,5.7,0,0,1,9.51,1.87,6,6,0,0,1,.41,2.24,0,0,0,0,1,0,0,6.08,6.08,0,0,1-.42,2.25A5.91,5.91,0,0,1,87,22.68a5.58,5.58,0,0,1-4.19,1.78Zm0-.77a4.71,4.71,0,0,0,2-.4A4.8,4.8,0,0,0,86.3,22.2a5.14,5.14,0,0,0,1-1.63,5.5,5.5,0,0,0,.36-2v0a5.34,5.34,0,0,0-.37-2,5.08,5.08,0,0,0-1-1.64,4.8,4.8,0,0,0-1.55-1.1,4.71,4.71,0,0,0-2-.41,4.79,4.79,0,0,0-2,.4,4.61,4.61,0,0,0-1.54,1.1,5,5,0,0,0-1,1.62,5.5,5.5,0,0,0-.36,2v0a5.51,5.51,0,0,0,.37,2,5.17,5.17,0,0,0,1,1.64,4.76,4.76,0,0,0,1.54,1.1A4.56,4.56,0,0,0,82.81,23.69Z"/><path class="cls-1" d="M90.06,12.82h.8l4.59,6.77,4.6-6.77h.8V24.26H100V14.32l-4.54,6.59h-.07l-4.53-6.59v9.94h-.8Z"/><path class="cls-1" d="M107.86,12.74h.82L114,24.26h-.93l-1.46-3.2h-6.75l-1.46,3.2h-.88Zm3.4,7.55-3-6.62-3,6.62Z"/><path class="cls-1" d="M116.81,13.59h-4v-.77h8.83v.77h-4V24.26h-.85Z"/><path class="cls-1" d="M123.28,12.82h.85V24.26h-.85Z"/><path class="cls-1" d="M132.07,24.46a5.64,5.64,0,0,1-2.35-.48,5.53,5.53,0,0,1-1.81-1.29,5.79,5.79,0,0,1-1.17-1.88,6.18,6.18,0,0,1-.4-2.24v0a6.06,6.06,0,0,1,1.58-4.14,5.58,5.58,0,0,1,4.19-1.78,5.62,5.62,0,0,1,2.36.48,5.68,5.68,0,0,1,3,3.17,6.23,6.23,0,0,1,.41,2.24,0,0,0,0,1,0,0,6.14,6.14,0,0,1-1.59,4.14,5.66,5.66,0,0,1-1.81,1.3A5.72,5.72,0,0,1,132.07,24.46Zm0-.77a4.63,4.63,0,0,0,1.95-.4,4.73,4.73,0,0,0,1.54-1.09,5.12,5.12,0,0,0,1-1.63,5.5,5.5,0,0,0,.36-2v0a5.54,5.54,0,0,0-.36-2,5.28,5.28,0,0,0-1-1.64,4.74,4.74,0,0,0-3.51-1.51,4.82,4.82,0,0,0-1.95.4,4.72,4.72,0,0,0-1.54,1.1,5,5,0,0,0-1,1.62,5.5,5.5,0,0,0-.36,2v0a5.31,5.31,0,0,0,.37,2,5,5,0,0,0,1,1.64,4.8,4.8,0,0,0,1.55,1.1A4.53,4.53,0,0,0,132.11,23.69Z"/><path class="cls-1" d="M139.45,12.82h.8l7.92,10v-10h.8V24.26h-.64l-8.08-10.17V24.26h-.8Z"/><path class="cls-1" d="M56,26.75h2.38l5,11.82h-2.7l-1.07-2.64h-5l-1.08,2.64H51Zm2.72,6.92-1.56-3.81-1.56,3.81Z"/><path class="cls-1" d="M64.11,26.83h2.38L72,34.06V26.83h2.55V38.57h-2.2L66.66,31.1v7.47H64.11Z"/><path class="cls-1" d="M79.91,33.94,75.4,26.83h3l2.8,4.71,2.85-4.71H87l-4.51,7.06v4.68H79.91Z"/><path class="cls-1" d="M87,26.83h2.76l2.44,8,2.63-8H97l2.63,8,2.43-8h2.7l-4,11.82H98.5L95.85,31,93.2,38.65H91Z"/><path class="cls-1" d="M106.25,26.83h2.58v4.64h4.76V26.83h2.58V38.57h-2.58V33.86h-4.76v4.71h-2.58Z"/><path class="cls-1" d="M118.23,26.83h8.84v2.3h-6.29v2.38h5.54V33.8h-5.54v2.47h6.37v2.3h-8.92Z"/><path class="cls-1" d="M129.05,26.83h5.36A4.63,4.63,0,0,1,137.83,28a3.58,3.58,0,0,1,1,2.68v0a3.64,3.64,0,0,1-.7,2.32,4,4,0,0,1-1.81,1.32l2.86,4.19h-3l-2.52-3.76h-2v3.76h-2.58Zm5.2,5.72a2.1,2.1,0,0,0,1.46-.46,1.54,1.54,0,0,0,.51-1.21v0a1.5,1.5,0,0,0-.53-1.27,2.38,2.38,0,0,0-1.49-.42h-2.57v3.39Z"/><path class="cls-1" d="M140.42,26.83h8.83v2.3H143v2.38h5.53V33.8H143v2.47h6.37v2.3h-8.92Z"/><text class="cls-2" transform="translate(92.75 48.08)">Go be great.</text></g></g></svg>