<svg xmlns="http://www.w3.org/2000/svg" viewBox="0 0 125.1 71.8"><defs><style>.cls-1{fill:#56565a;}</style></defs><title>City of SJ</title><g id="Layer_2" data-name="Layer 2"><g id="Layer_1-2" data-name="Layer 1"><g id="_Group_" data-name="&lt;Group&gt;"><g id="_Group_2" data-name="&lt;Group&gt;"><path id="_Path_" data-name="&lt;Path&gt;" class="cls-1" d="M96,15.1c-.8,1.6-.5,3.4-2.1,4.7-.3.2-.1,1.4.9.7,1.5-1.1,2-2.7,4.2-3.5,1.8-.7,4.8,0,5.9-.8a3.74,3.74,0,0,0,.6-.7.49.49,0,0,1,.9.4,4.93,4.93,0,0,1-2.6,2.7c-2.5,1.2-3.6.7-5,3.7-.5,1-1.5,1.3-2.4,1.9a.38.38,0,0,0,.1.7c1.5.2,2.4-1,3.6-1.4,2.4-1.1,4.8.2,7,.8a3,3,0,0,0,1.4-.2c1.5-.7,2,.1.5,1.1s-3.2,1-5.1,1-3,1.1-4.2,2.1c-.7.6-1.9.5-2.5.7-.2.1-.3.4,0,.4h14.7l1.7-1.6-2-1.3,1.6-1.8L111,23.6l1.4-1.9-2.3-.9,1.2-2-2.3-.6,1-2.2-2.5-.4.7-2.2-2.4-.1.6-2.3-2.4.1.3-2.4-2.4.3V6.6l-2.4.6-.2-2.4L97,5.6l-.4-2.3-2.2,1L93.7,2,91.6,3.2,90.6,1l-2,1.5L87.4.4,85.6,2,84.2,0,82.6,1.8,81,0,79.6,2,77.8.4,76.6,2.5,74.7,1l-1,2.2L71.6,2l-.7,2.3L68.7,3.2l-.5,2.3-2.3-.8-.2,2.4-2.4-.5V9l-2.4-.4.2,2.4-2.5-.1.5,2.3-2.4.2.8,2.3-2.4.5,1.1,2.1-2.3.7,1.3,2-2.3.9,1.5,1.9-2.2,1.1,1.6,1.8-2,1.3,1.8,1.6H68c.4-.1.6-.4.2-.7a2.49,2.49,0,0,0-1.9-.2c-5.4,1.6-6.3-2.9-8.9-3.4-.6-.3-1.4.4-1.8-.3a.49.49,0,0,1,.3-.6c1.8-1,4-.2,5.7.6,1.3.7,2.6.4,4,0a3.58,3.58,0,0,1,3.3,0c.4.1,1.1-.3.3-1-1.6-.9-2.7-.2-4.6-1.4s-2.5-3-3.2-4.2a1.76,1.76,0,0,0-1.2-1c-1.4-.2-1.7-.9-1-1.2,2.2-.3,3.9,1.1,5.3,2.4s3,.9,4.7,1.2c1,.2,1.6,1,2.5,1.1.4,0,.6-.8-.1-1.3-1.4-1-3.1-1.5-4-3.2-.8-1.3-.6-2.7-.9-3.9a3,3,0,0,0-.8-1.6,5.55,5.55,0,0,0-.8-.6c-.5-.3-.2-.9.5-.8,2.1.4,3.1,2.5,4,4.1,1.1,2.3,4.3,2,4.9,3.3a1.74,1.74,0,0,0,.7.9c1.3.3.7-1.3-.2-2.2a8.76,8.76,0,0,1-1.4-1.7c-1.7-2.4.7-4.9-.1-7.4-.2-.5-1.1-.9-.4-1.4.4-.2.7.2,1,.4,1.7,1.3,1.6,3.7,2.1,5.6.5,1.7,2.3,2,3.1,3.5.4.5.2,1.6,1.1,1.6.2,0,.3-.3.4-.5.2-1.8-1.4-3.1-1-5.1.1-1.9,1.8-3.2,2.3-5,.4-1-.2-1.6-.2-2s.4-.4.6-.3c2.2,1.6.9,4.5.7,6.8-.1,1.5,1.4,2.6,1.7,4,.2.7-.4,2,.5,2,.5,0,.6-.5.7-.9.1-1.5-.1-3.4.7-4.7,1-2.1,3.4-2.3,4.2-4.6a1.48,1.48,0,0,0,.1-.7c0-1.1.7-.9,1,.2.7,2.2-1.1,3.9-2,5.7-.6,1.2,0,2.6.1,3.8.1,1.4-.9,2-.7,2.6.1.3.4.3.7.2,1.5-.9,1.4-3,2.3-4.1,1.9-2.4,4.7-1.6,6.3-3.6.3-.3.1-1.1.8-1.1.2.1.4.2.4.5C100.3,12.3,97.2,12.7,96,15.1Z"/></g><rect id="_Path_2" data-name="&lt;Path&gt;" class="cls-1" y="60.1" width="54.3" height="0.9"/><rect id="_Path_3" data-name="&lt;Path&gt;" class="cls-1" x="71.1" y="60.1" width="53.9" height="0.9"/><g id="_Group_3" data-name="&lt;Group&gt;"><path id="_Path_4" data-name="&lt;Path&gt;" class="cls-1" d="M1.3,49.8a6.23,6.23,0,0,0,6.1,5c2.4,0,5-1.4,5-4.2,0-5.1-11.6-6.7-11.6-13,0-3,2.7-5.2,6.4-5.2,3,0,3.7.9,4.9.9.3,0,.4-.1.7-.4h.6l.6,4.5h-.6a6.28,6.28,0,0,0-5.8-4.2c-2.4,0-4.1,1.4-4.1,3.4,0,5.1,11.6,6.4,11.6,13,0,3.5-3.1,6.1-7.4,6.1-2,0-4.5-1-5-1a.84.84,0,0,0-.7.4H1.4L.6,49.7h.7Z"/><path id="_Compound_Path_" data-name="&lt;Compound Path&gt;" class="cls-1" d="M20.7,46.6l-1.8,4.9a8.93,8.93,0,0,0-.6,2c0,.8.8,1.2,2.6,1.2h.5v.6H14.1v-.6c2.1,0,2.4-.4,3.4-3.1l5.8-15.5-.3-.7h2.8l6.6,17.3c.6,1.7,1.3,2,2.9,2v.6H26.6v-.6h.8c1.8,0,2.5-.2,2.5-1.1a4.15,4.15,0,0,0-.3-1.3l-2.1-5.7ZM23.9,38l-2.7,7.3h5.5Z"/><path id="_Path_5" data-name="&lt;Path&gt;" class="cls-1" d="M53.6,55.4,37.2,38.5V51.9c0,2.2.5,2.7,3.2,2.7v.6H33.1v-.6h.1c2,0,2.6-.7,2.6-2.1V37.1a4.55,4.55,0,0,0-2.7-.8v-.6h5L53,51V38.6c0-1.9-.6-2.2-3.1-2.3v-.6h7.4v.6c-2.4,0-2.9.4-2.9,1.6V55.3h-.8Z"/><path id="_Path_6" data-name="&lt;Path&gt;" class="cls-1" d="M69.9,50.4c0,7.2-3,12-7.5,12-2,0-3.5-.8-3.5-1.9a1.42,1.42,0,0,1,1.3-1.4c1.2,0,2.2,1.7,3.7,1.7,1.7,0,3-1.3,3-5.2V36.5c0-3.1-.3-3.9-2.9-3.9h-.4v-.7h9.2v.7c-2.3.1-2.8.7-2.8,2.6V50.4Z"/><path id="_Compound_Path_2" data-name="&lt;Compound Path&gt;" class="cls-1" d="M83.2,55.7c-6.2,0-11.4-3.9-11.4-9.8,0-6.2,4.8-10.6,11.6-10.6,6,0,11.1,4,11.1,9.6C94.5,51.3,89.4,55.7,83.2,55.7Zm-.6-19.6c-5.6,0-7.8,5.1-7.8,8.9,0,5.8,4,10,9.1,10s7.6-4.5,7.6-8.9C91.5,40.2,87.8,36.1,82.6,36.1Z"/><path id="_Path_7" data-name="&lt;Path&gt;" class="cls-1" d="M95.6,50.5a5.48,5.48,0,0,0,5.3,4.4c2.1,0,4.4-1.2,4.4-3.7,0-4.5-10.2-5.9-10.2-11.3,0-2.6,2.4-4.5,5.6-4.5,2.7,0,3.2.8,4.3.8a.71.71,0,0,0,.6-.3h.5l.5,4h-.5a5.68,5.68,0,0,0-5.1-3.7c-2.1,0-3.5,1.2-3.5,2.9,0,4.4,10.2,5.6,10.2,11.4,0,3.1-2.8,5.3-6.5,5.3a27.4,27.4,0,0,1-4.4-.8.85.85,0,0,0-.6.3h-.5L95,50.6h.6Z"/><path id="_Path_8" data-name="&lt;Path&gt;" class="cls-1" d="M121.9,48.2h-.6c-.3-2.2-.9-2.5-2.2-2.5h-5.3v6.6c0,1.4.5,1.7,1.7,1.7h4.9c2.2,0,2.9-.8,3.7-3.5h.6l-.5,4.7H107.4v-.6h.9c2.5,0,3-.7,3-2.6V38.8c0-1.7-.4-2.5-2.5-2.5h-.7v-.6h15.2l.3,4.3H123c-.4-2.7-1.2-3.2-2.3-3.2H114v7.7h5.7c1.1,0,1.7-.5,1.8-2.3h.6v6Z"/></g><g id="_Group_4" data-name="&lt;Group&gt;"><path id="_Path_9" data-name="&lt;Path&gt;" class="cls-1" d="M5.8,67.6a2.21,2.21,0,0,0-2.1-1.4,2.44,2.44,0,0,0-2.5,2.6,2.69,2.69,0,0,0,2.6,2.8,2.56,2.56,0,0,0,2.3-1.3h.2a5.17,5.17,0,0,1-.6,1.3c-.6-.1-1,.2-2.1.2A2.92,2.92,0,0,1,.4,68.9a3.09,3.09,0,0,1,3.3-3,7.07,7.07,0,0,1,2,.4c.1,0,.1,0,.2-.1H6l.1,1.3H5.8Z"/><path id="_Compound_Path_3" data-name="&lt;Compound Path&gt;" class="cls-1" d="M8.2,69.2l-.5,1.4a1.42,1.42,0,0,0-.2.6c0,.2.2.3.7.3h.1v.2H6.2v-.2c.6,0,.7-.1,1-.9l1.7-4.5-.1-.2h.8l1.9,5c.2.5.4.6.8.6v.2H9.8v-.2H10c.5,0,.7-.1.7-.3s-.1-.3-.1-.4L10,69.2Zm1-2.5-.8,2.1H10Z"/><path id="_Compound_Path_4" data-name="&lt;Compound Path&gt;" class="cls-1" d="M14.4,70.8c0,.5.2.7.7.7h.3v.2H12.8v-.2h.1c.5,0,.6-.1.6-.5V66.7c0-.3-.1-.5-.4-.5h-.5V66a5.74,5.74,0,0,0,1.2-.1h1.1c1.9,0,2.4.9,2.4,1.6,0,1.1-.9,1.7-2.2,1.7a2.2,2.2,0,0,1-.8-.1v1.7Zm0-1.7a4.33,4.33,0,0,0,.5.1,1.61,1.61,0,0,0,1.7-1.6c0-.7-.3-1.4-1.5-1.4h-.6v2.9Z"/><path id="_Path_10" data-name="&lt;Path&gt;" class="cls-1" d="M20.1,71.7H17.9v-.2c.6,0,.7-.2.7-.8V66.9c0-.5-.2-.6-.7-.6v-.2h2.2v.2c-.6,0-.8.1-.8.7v3.8c0,.5.1.7.8.7Z"/><path id="_Path_11" data-name="&lt;Path&gt;" class="cls-1" d="M23.7,70.9c0,.5.2.7.7.7h.3v.2H21.8v-.2h.3c.6,0,.7-.2.7-.7V66.5H21.2c-.4,0-.5.2-.7,1h-.2l.1-1.5h.2c0,.1,0,.1.1.1h4.6c.1,0,.3,0,.3-.1h.2l.1,1.5h-.2c-.1-.8-.3-1-.7-1H23.4v4.4Z"/><path id="_Compound_Path_5" data-name="&lt;Compound Path&gt;" class="cls-1" d="M27.1,69.2l-.5,1.4a1.42,1.42,0,0,0-.2.6c0,.2.2.3.7.3h.1v.2H25.1v-.2c.6,0,.7-.1,1-.9l1.7-4.5-.1-.2h.8l1.9,5c.2.5.4.6.8.6v.2H28.7v-.2h.2c.5,0,.7-.1.7-.3s-.1-.3-.1-.4l-.6-1.6Zm.9-2.5-.8,2.1h1.6Z"/><path id="_Path_12" data-name="&lt;Path&gt;" class="cls-1" d="M35.5,71.7H31.4v-.2h.3c.4,0,.6-.1.6-.6v-4c0-.5-.1-.7-.7-.7h-.1V66h2.7v.2h-.3c-.6,0-.8.1-.8.6v4.1c0,.2.1.3.4.3h1.4c.5,0,.7-.2,1.3-1h.2Z"/><path id="_Compound_Path_6" data-name="&lt;Compound Path&gt;" class="cls-1" d="M43.1,71.8c-1.8,0-3.3-1.1-3.3-2.8a3.13,3.13,0,0,1,3.4-3.1,3,3,0,0,1,3.2,2.8A3.1,3.1,0,0,1,43.1,71.8Zm-.2-5.6a2.44,2.44,0,0,0-2.3,2.6,2.74,2.74,0,0,0,2.7,2.9,2.32,2.32,0,0,0,2.2-2.6A2.66,2.66,0,0,0,42.9,66.2Z"/><path id="_Path_13" data-name="&lt;Path&gt;" class="cls-1" d="M50.9,69.5h-.2c0-.5-.2-.7-.7-.7H48.3v2c0,.5.1.7.8.7v.2H46.9v-.2c.6,0,.7-.2.7-.9V67.1c0-.6,0-.8-.7-.8v-.2H51v1.1h-.2c0-.5-.2-.7-.8-.7H48.2v2.1H50c.3,0,.5-.2.5-.6h.2v1.5Z"/><path id="_Path_14" data-name="&lt;Path&gt;" class="cls-1" d="M55.6,70.3a1.6,1.6,0,0,0,1.6,1.3,1.22,1.22,0,0,0,1.3-1.1c0-1.3-3-1.7-3-3.3a1.48,1.48,0,0,1,1.6-1.3,9,9,0,0,1,1.3.2c.1,0,.1,0,.2-.1h.1l.2,1.1h-.2A1.87,1.87,0,0,0,57.2,66c-.6,0-1,.3-1,.8,0,1.3,3,1.6,3,3.3,0,.9-.8,1.5-1.9,1.5a9,9,0,0,1-1.3-.2c-.1,0-.1,0-.2.1h-.2l-.2-1.4h.2Z"/><path id="_Path_15" data-name="&lt;Path&gt;" class="cls-1" d="M62.1,71.7H59.9v-.2c.6,0,.7-.2.7-.8V66.9c0-.5-.2-.6-.7-.6v-.2h2.2v.2c-.6,0-.8.1-.8.7v3.8c0,.5.1.7.8.7Z"/><path id="_Path_16" data-name="&lt;Path&gt;" class="cls-1" d="M66.8,71.7H62.7v-.2H63c.4,0,.6-.1.6-.6v-4c0-.5-.1-.7-.7-.7h-.1V66h2.7v.2h-.3c-.6,0-.8.1-.8.6v4.1c0,.2.1.3.4.3h1.4c.5,0,.7-.2,1.3-1h.2Z"/><path id="_Path_17" data-name="&lt;Path&gt;" class="cls-1" d="M69.8,71.7H67.6v-.2c.6,0,.7-.2.7-.8V66.9c0-.5-.2-.6-.7-.6v-.2h2.2v.2c-.6,0-.8.1-.8.7v3.8c0,.5.1.7.8.7Z"/><path id="_Path_18" data-name="&lt;Path&gt;" class="cls-1" d="M75.4,67.6a2.21,2.21,0,0,0-2.1-1.4,2.44,2.44,0,0,0-2.5,2.6,2.69,2.69,0,0,0,2.6,2.8,2.56,2.56,0,0,0,2.3-1.3h.2a5.17,5.17,0,0,1-.6,1.3c-.6-.1-1,.2-2.1.2A2.92,2.92,0,0,1,70,68.9a3.09,3.09,0,0,1,3.3-3,7.07,7.07,0,0,1,2,.4c.1,0,.1,0,.2-.1h.1l.1,1.3h-.3Z"/><path id="_Compound_Path_7" data-name="&lt;Compound Path&gt;" class="cls-1" d="M79.4,71.8c-1.8,0-3.3-1.1-3.3-2.8a3.13,3.13,0,0,1,3.4-3.1,3,3,0,0,1,3.2,2.8A3.1,3.1,0,0,1,79.4,71.8Zm-.2-5.6a2.44,2.44,0,0,0-2.3,2.6,2.74,2.74,0,0,0,2.7,2.9,2.32,2.32,0,0,0,2.2-2.6A2.56,2.56,0,0,0,79.2,66.2Z"/><path id="_Path_19" data-name="&lt;Path&gt;" class="cls-1" d="M88.7,71.7l-4.8-4.9v3.9c0,.6.1.8.9.8v.2H82.7v-.2h0c.6,0,.8-.2.8-.6V66.5a1.88,1.88,0,0,0-.8-.2v-.2h1.5l4.4,4.4V66.9c0-.5-.2-.6-.9-.7V66h2.2v.2c-.7,0-.8.1-.8.5v5Z"/><path id="_Path_20" data-name="&lt;Path&gt;" class="cls-1" d="M95.9,71.8l-2-4.9c-.2-.6-.3-.7-.9-.7V66h2.5v.2c-.9,0-1.1.2-.9.6l1.7,4,1.5-3.7c.1-.3.2-.4.2-.6s-.2-.4-.9-.4v-.2h2.1v.2c-.5,0-.7.2-1,.8l-1.9,4.8h-.4Z"/><path id="_Compound_Path_8" data-name="&lt;Compound Path&gt;" class="cls-1" d="M99.7,69.2l-.5,1.4a1.42,1.42,0,0,0-.2.6c0,.2.2.3.7.3h.1v.2H97.7v-.2c.6,0,.7-.1,1-.9l1.7-4.5-.1-.2h.8l1.9,5c.2.5.4.6.8.6v.2h-2.5v-.2h.2c.5,0,.7-.1.7-.3s-.1-.3-.1-.4l-.6-1.6Zm.9-2.5-.8,2.1h1.6Z"/><path id="_Path_21" data-name="&lt;Path&gt;" class="cls-1" d="M108.2,71.7h-4.1v-.2h.3c.4,0,.6-.1.6-.6v-4c0-.5-.1-.7-.7-.7h-.1V66h2.7v.2h-.3c-.6,0-.8.1-.8.6v4.1c0,.2.1.3.4.3h1.4c.5,0,.7-.2,1.3-1h.2Z"/><path id="_Path_22" data-name="&lt;Path&gt;" class="cls-1" d="M112.9,71.7h-4.1v-.2h.3c.4,0,.6-.1.6-.6v-4c0-.5-.1-.7-.7-.7h-.1V66h2.7v.2h-.3c-.6,0-.8.1-.8.6v4.1c0,.2.1.3.4.3h1.4c.5,0,.7-.2,1.3-1h.2Z"/><path id="_Path_23" data-name="&lt;Path&gt;" class="cls-1" d="M117.9,69.7h-.2c-.1-.6-.2-.7-.6-.7h-1.6v1.9c0,.4.2.5.5.5h1.4c.6,0,.8-.2,1.1-1h.2l-.1,1.3h-4.9v-.2h.3c.7,0,.9-.2.9-.7V67c0-.5-.1-.7-.7-.7H114v-.2h4.4l.1,1.3h-.2c-.1-.8-.4-.9-.7-.9h-2v2.2h1.7c.3,0,.5-.2.5-.7h.2v1.7Z"/><path id="_Path_24" data-name="&lt;Path&gt;" class="cls-1" d="M123.5,66.9c.3-.5.1-.6-.5-.6v-.2h2.1v.2a1.39,1.39,0,0,0-1.2.7l-1.5,2.5v1.4c0,.5.2.7.7.7h.1v.2h-2.5v-.2h.2c.6,0,.7-.2.7-.6V69.7L120,67.2c-.5-.7-.7-.8-1.3-.8v-.2h2.5v.2c-.7,0-.8.2-.5.6l1.5,2.2Z"/></g><path id="_Path_25" data-name="&lt;Path&gt;" class="cls-1" d="M14.7,25.2a2.21,2.21,0,0,0-2.1-1.4,2.37,2.37,0,0,0-2.4,2.6,2.68,2.68,0,0,0,2.5,2.8,2.33,2.33,0,0,0,2.2-1.3h.2a5.17,5.17,0,0,1-.6,1.3c-.6-.1-1,.2-2,.2a3,3,0,0,1-3.2-2.8,3.06,3.06,0,0,1,3.2-3,7,7,0,0,1,1.9.4c.1,0,.1,0,.2-.1h.1l.1,1.3Z"/><path id="_Path_26" data-name="&lt;Path&gt;" class="cls-1" d="M18,29.3H15.8v-.2c.6,0,.7-.2.7-.8V24.5c0-.5-.2-.6-.7-.6v-.2H18v.2c-.6,0-.8.1-.8.7v3.8c0,.5.1.7.8.7Z"/><path id="_Path_27" data-name="&lt;Path&gt;" class="cls-1" d="M21.5,28.4c0,.5.2.7.7.7h.3v.2H19.7v-.2H20c.6,0,.7-.2.7-.7V24H19.1c-.4,0-.5.2-.7,1h-.2l.1-1.4h.2c0,.1,0,.1.1.1h4.5c.1,0,.3,0,.3-.1h.2l.1,1.4h-.2c-.1-.8-.3-1-.7-1H21.2v4.4Z"/><path id="_Path_28" data-name="&lt;Path&gt;" class="cls-1" d="M28.7,24.5c.3-.5.1-.6-.5-.6v-.2h2v.2a1.13,1.13,0,0,0-1.1.7l-1.5,2.5v1.3c0,.5.2.7.7.7h.1v.2H25.9v-.2h.2c.6,0,.7-.2.7-.6V27.2l-1.6-2.5c-.4-.7-.7-.8-1.2-.8v-.2h2.4v.2c-.7,0-.7.2-.5.6l1.4,2.2Z"/><path id="_Compound_Path_9" data-name="&lt;Compound Path&gt;" class="cls-1" d="M38.9,26.6a2.23,2.23,0,0,1-2.2,2.5,2.63,2.63,0,0,1-2.6-2.8,2.28,2.28,0,0,1,2.2-2.5A2.58,2.58,0,0,1,38.9,26.6Zm.9-.3a3,3,0,0,0-3.2-2.8,3.09,3.09,0,0,0-3.3,3c0,1.7,1.5,2.8,3.3,2.8A3,3,0,0,0,39.8,26.3Z"/><path id="_Path_29" data-name="&lt;Path&gt;" class="cls-1" d="M44,27.1h-.2c0-.5-.2-.7-.6-.7H41.5v2c0,.5.1.7.8.7v.2H40.1v-.2c.6,0,.7-.2.7-.9V24.7c0-.6,0-.8-.7-.8v-.2h4v1.1h-.2c0-.5-.2-.7-.7-.7H41.5v2.1h1.8c.3,0,.5-.2.5-.6H44v1.5Z"/></g></g></g></svg>