<svg xmlns="http://www.w3.org/2000/svg" viewBox="0 0 147.8 35.9"><defs><style>.cls-1{fill:#56565a;}</style></defs><title>LinkedIn</title><g id="Layer_2" data-name="Layer 2"><g id="Layer_1-2" data-name="Layer 1"><path class="cls-1" d="M146.4,28.2c0-.5-.3-.7-.9-.7h-1V30h.4V28.9h.4L146,30h.4l-.6-1.1A.66.66,0,0,0,146.4,28.2Zm-1,.5H145v-.8h.5c.3,0,.6,0,.6.4S145.7,28.7,145.4,28.7Z"/><path class="cls-1" d="M145.4,26.4a2.4,2.4,0,1,0,2.4,2.4A2.43,2.43,0,0,0,145.4,26.4Zm0,4.4a2.1,2.1,0,1,1,2-2.1A2,2,0,0,1,145.4,30.8Z"/><polygon class="cls-1" points="5.5 5.3 0 5.3 0 30.5 15.7 30.5 15.7 25.4 5.5 25.4 5.5 5.3"/><path class="cls-1" d="M20.8,4.9A3.18,3.18,0,0,0,17.7,8a3.1,3.1,0,1,0,3.1-3.1Z"/><rect class="cls-1" x="18.2" y="13.4" width="5.3" height="17.1"/><polygon class="cls-1" points="63.6 13.4 57.1 13.4 51.1 20.4 51.1 5.3 45.7 5.3 45.7 30.5 51.1 30.5 51.1 22.1 56.8 30.5 63.4 30.5 56.6 21.3 63.6 13.4"/><path class="cls-1" d="M36.6,12.9a5.61,5.61,0,0,0-5,2.8h-.1V13.4H26.4V30.6h5.3V22.1c0-2.2.4-4.4,3.2-4.4s2.8,2.5,2.8,4.5v8.3H43V21.1C43,16.4,42,12.9,36.6,12.9Z"/><path class="cls-1" d="M72,13c-5.3,0-9.6,3.5-9.6,9s4.3,9,9.6,9a9.25,9.25,0,0,0,7.3-3.4l-3.7-2.7A4.64,4.64,0,0,1,71.8,27a4,4,0,0,1-4-3.3H80.1V22C80.1,16.5,77,13,72,13Zm-4.3,7a3.66,3.66,0,0,1,3.8-3.3A3.2,3.2,0,0,1,74.8,20Z"/><path class="cls-1" d="M95.1,15.1H95c-1.2-1.7-3.3-2.3-5.5-2.3-4.9,0-7.9,4.4-7.9,9.2,0,5.2,3.4,8.9,8.5,8.9a6.83,6.83,0,0,0,5.3-2.7v2.3h5V5.2H95.1ZM91.2,26.4A4.07,4.07,0,0,1,86.9,22a4.07,4.07,0,0,1,4.3-4.4c2.6,0,4.2,1.7,4.3,4.4A4.07,4.07,0,0,1,91.2,26.4Z"/><path class="cls-1" d="M138.9,0H108.3a2.58,2.58,0,0,0-2.6,2.6V33.3a2.65,2.65,0,0,0,2.6,2.6h30.6a2.67,2.67,0,0,0,2.7-2.6V2.6A2.73,2.73,0,0,0,138.9,0ZM116.3,30.5H111V13.4h5.3Zm-2.7-19.4A3.1,3.1,0,1,1,116.7,8,3.12,3.12,0,0,1,113.6,11.1Zm22.6,19.4h-5.3V22.2c0-2,0-4.5-2.8-4.5s-3.2,2.2-3.2,4.4v8.5h-5.3V13.4h5.1v2.3h.1a5.61,5.61,0,0,1,5-2.8c5.4,0,6.4,3.5,6.4,8.2Z"/></g></g></svg>