<svg xmlns="http://www.w3.org/2000/svg" viewBox="0 0 132.23 60.87"><defs><style>.cls-1,.cls-2{fill:#56565a;}.cls-2{fill-rule:evenodd;}</style></defs><title>Salesforce.org</title><g id="Layer_2" data-name="Layer 2"><g id="Layer_1-2" data-name="Layer 1"><path class="cls-1" d="M52.89,0a9.38,9.38,0,0,0-8.62,13.1,8.17,8.17,0,0,0,4,15.22A7.45,7.45,0,0,0,50,28.14a8.7,8.7,0,0,0,16.16.4,7.64,7.64,0,0,0,10-3.14,10.64,10.64,0,0,0,2.05.21,10.52,10.52,0,0,0,0-21,10.22,10.22,0,0,0-4.21.9A8.49,8.49,0,0,0,60.35,3.69,9.37,9.37,0,0,0,52.89,0Z"/><path class="cls-1" d="M0,54c-.08.21,0,.25.05.29a7.19,7.19,0,0,0,.74.44,7.79,7.79,0,0,0,3.85.9C7.31,55.63,9,54.23,9,52v0c0-2.09-1.85-2.85-3.59-3.4l-.22-.07C3.83,48,2.7,47.66,2.7,46.79v0c0-.74.66-1.28,1.68-1.28a7.63,7.63,0,0,1,3.36.86s.26.16.35-.08l.54-1.45a.25.25,0,0,0-.13-.3,7.57,7.57,0,0,0-3.79-1H4.45C2,43.49.34,45,.34,47v.05C.34,49.29,2.2,50,4,50.51l.28.08c1.27.39,2.37.73,2.37,1.62v0c0,.82-.72,1.43-1.86,1.43a6.27,6.27,0,0,1-3.41-1L.9,52.43c-.08,0-.27-.13-.35.12Z"/><path class="cls-1" d="M38.7,54c-.08.21,0,.25.06.29a7.07,7.07,0,0,0,.73.44,7.84,7.84,0,0,0,3.85.9c2.65,0,4.29-1.4,4.29-3.66v0c0-2.09-1.86-2.85-3.59-3.4l-.23-.07c-1.31-.43-2.44-.79-2.44-1.66v0c0-.74.66-1.28,1.69-1.28a7.62,7.62,0,0,1,3.35.86s.26.16.35-.08l.54-1.45a.25.25,0,0,0-.13-.3,7.5,7.5,0,0,0-3.78-1h-.27C40.71,43.49,39,45,39,47v.05c0,2.2,1.86,2.92,3.6,3.42l.28.08c1.27.39,2.37.73,2.37,1.62v0c0,.82-.71,1.43-1.86,1.43a6.23,6.23,0,0,1-3.4-1c-.19-.11-.3-.19-.44-.28a.23.23,0,0,0-.35.12Z"/><path class="cls-1" d="M67.31,47.2a5.32,5.32,0,0,0-1-1.92A4.89,4.89,0,0,0,64.61,44a6.16,6.16,0,0,0-4.72,0,4.89,4.89,0,0,0-1.7,1.29,5.25,5.25,0,0,0-1,1.92,8.13,8.13,0,0,0-.33,2.37,8.23,8.23,0,0,0,.33,2.37,5.21,5.21,0,0,0,1,1.91,4.75,4.75,0,0,0,1.7,1.28,6.28,6.28,0,0,0,4.72,0,4.75,4.75,0,0,0,1.7-1.28,5.36,5.36,0,0,0,1-1.91,8.94,8.94,0,0,0,0-4.74M65.1,49.57a5.42,5.42,0,0,1-.7,3,2.37,2.37,0,0,1-2.15,1,2.34,2.34,0,0,1-2.14-1,5.51,5.51,0,0,1-.69-3,5.47,5.47,0,0,1,.69-3,2.36,2.36,0,0,1,2.14-1,2.39,2.39,0,0,1,2.15,1,5.38,5.38,0,0,1,.7,3"/><path class="cls-2" d="M85.42,53.27a.21.21,0,0,0-.28-.13,5.36,5.36,0,0,1-1,.29,7.55,7.55,0,0,1-1.21.09,3.36,3.36,0,0,1-2.52-1,4.22,4.22,0,0,1-.95-3,4.75,4.75,0,0,1,.85-2.91,2.89,2.89,0,0,1,2.45-1.07,7.33,7.33,0,0,1,2.33.33s.17.08.25-.15c.2-.54.34-.92.55-1.51a.21.21,0,0,0-.14-.26,9.17,9.17,0,0,0-1.47-.37,11.63,11.63,0,0,0-1.66-.11,6.13,6.13,0,0,0-2.46.47,5.16,5.16,0,0,0-1.77,1.29,5.34,5.34,0,0,0-1.07,1.91,7.61,7.61,0,0,0-.36,2.38A6.38,6.38,0,0,0,78.39,54a5.63,5.63,0,0,0,4.36,1.64A8.91,8.91,0,0,0,85.87,55a.2.2,0,0,0,.09-.26Z"/><path class="cls-2" d="M96.7,46.78a4.75,4.75,0,0,0-1-1.75A4.53,4.53,0,0,0,94.33,44a5.48,5.48,0,0,0-2.14-.43,5.84,5.84,0,0,0-2.46.48A4.8,4.8,0,0,0,88,45.31a5.21,5.21,0,0,0-1,1.94,8.3,8.3,0,0,0-.33,2.38A7.82,7.82,0,0,0,87,52a4.83,4.83,0,0,0,1.08,1.9A5,5,0,0,0,90,55.16a7.34,7.34,0,0,0,2.71.43,7.66,7.66,0,0,0,3.75-.74c.09-.05.17-.13.07-.36L96,53.12a.22.22,0,0,0-.28-.13,7.21,7.21,0,0,1-3.07.56,3.6,3.6,0,0,1-2.55-.88,3.56,3.56,0,0,1-.87-2.49h7.47a.21.21,0,0,0,.21-.19A7.93,7.93,0,0,0,96.7,46.78Zm-7.42,1.56a4.3,4.3,0,0,1,.6-1.76A2.37,2.37,0,0,1,92,45.5a2.33,2.33,0,0,1,2.1,1.08,3.75,3.75,0,0,1,.49,1.76Z"/><path class="cls-2" d="M36.92,46.78A4.62,4.62,0,0,0,36,45,4.51,4.51,0,0,0,34.55,44a5.48,5.48,0,0,0-2.14-.43,5.92,5.92,0,0,0-2.47.48,5,5,0,0,0-1.72,1.31,5.52,5.52,0,0,0-1,1.94,8.66,8.66,0,0,0-.32,2.38A7.82,7.82,0,0,0,27.23,52a4.83,4.83,0,0,0,1.08,1.9,5.08,5.08,0,0,0,1.87,1.25,7.41,7.41,0,0,0,2.71.43,7.72,7.72,0,0,0,3.76-.74c.09-.05.16-.13.07-.36l-.49-1.37A.22.22,0,0,0,36,53a7.25,7.25,0,0,1-3.07.56,3.6,3.6,0,0,1-2.55-.88,3.56,3.56,0,0,1-.87-2.49h7.46a.22.22,0,0,0,.22-.19A7.93,7.93,0,0,0,36.92,46.78Zm-7.43,1.56a4.45,4.45,0,0,1,.61-1.76,2.37,2.37,0,0,1,2.13-1.08,2.3,2.3,0,0,1,2.09,1.08,3.64,3.64,0,0,1,.5,1.76Z"/><path class="cls-1" d="M16.33,48c-.3,0-.7,0-1.17,0a6.91,6.91,0,0,0-1.83.24,4.66,4.66,0,0,0-1.56.72,3.49,3.49,0,0,0-1.48,3,3.82,3.82,0,0,0,.34,1.7,3,3,0,0,0,1,1.17,4,4,0,0,0,1.52.66,8.62,8.62,0,0,0,2,.2,13.21,13.21,0,0,0,2.27-.19c.73-.12,1.63-.3,1.88-.36l.52-.13a.25.25,0,0,0,.17-.25V47.84a4.18,4.18,0,0,0-1.19-3.3,5.11,5.11,0,0,0-3.43-1,12.09,12.09,0,0,0-2,.18,7.16,7.16,0,0,0-2.3.85.22.22,0,0,0-.07.29l.53,1.42a.19.19,0,0,0,.25.12l.12-.06a7.6,7.6,0,0,1,3.25-.76A3,3,0,0,1,17,46c.4.31.61.78.61,1.77v.32C16.92,48,16.33,48,16.33,48Zm-3,5.25a1.51,1.51,0,0,1-.43-.44,1.79,1.79,0,0,1-.22-1,1.64,1.64,0,0,1,.66-1.45,3.38,3.38,0,0,1,2.17-.54,16.58,16.58,0,0,1,2,.17v3.4h0a15.84,15.84,0,0,1-2,.27A3.36,3.36,0,0,1,13.36,53.23Z"/><path class="cls-2" d="M76.54,44.14a.21.21,0,0,0-.12-.27,6.32,6.32,0,0,0-1.25-.21,3.66,3.66,0,0,0-1.92.31A3.29,3.29,0,0,0,72,44.9V44a.22.22,0,0,0-.22-.23H69.86a.22.22,0,0,0-.22.23V55.12a.23.23,0,0,0,.23.23h2a.23.23,0,0,0,.23-.23V49.56a6.71,6.71,0,0,1,.24-2A3,3,0,0,1,73,46.5a2.24,2.24,0,0,1,.92-.55,3.47,3.47,0,0,1,1-.14,4.23,4.23,0,0,1,.82.1.26.26,0,0,0,.28-.2C76.1,45.36,76.47,44.34,76.54,44.14Z"/><path class="cls-2" d="M58.13,39a6.69,6.69,0,0,0-.74-.18,6,6,0,0,0-1-.08,4.31,4.31,0,0,0-3.17,1.14,6.25,6.25,0,0,0-1.5,3.39l-.09.5H49.93a.25.25,0,0,0-.25.22l-.28,1.55c0,.15,0,.24.24.24h1.65L49.62,55.1a11.25,11.25,0,0,1-.45,1.84A3.48,3.48,0,0,1,48.65,58a1.33,1.33,0,0,1-.68.53,2.71,2.71,0,0,1-.88.13,3.07,3.07,0,0,1-.6-.07,1.34,1.34,0,0,1-.4-.13.21.21,0,0,0-.27.12c-.06.16-.5,1.37-.56,1.52a.23.23,0,0,0,.12.3c.22.07.38.13.68.2a5,5,0,0,0,1.1.1A5.67,5.67,0,0,0,49,60.42a3.42,3.42,0,0,0,1.38-1,5,5,0,0,0,1-1.67,13.63,13.63,0,0,0,.65-2.5l1.68-9.52h2.46a.25.25,0,0,0,.25-.22L56.66,44c0-.15,0-.24-.24-.24H54a9.66,9.66,0,0,1,.4-1.68,2.06,2.06,0,0,1,.52-.8,1.63,1.63,0,0,1,.62-.39,2.56,2.56,0,0,1,.81-.11,2.8,2.8,0,0,1,.61.06l.38.09c.24.08.28,0,.32-.11l.58-1.57A.21.21,0,0,0,58.13,39Z"/><path class="cls-2" d="M24.78,55.12a.22.22,0,0,1-.21.23h-2a.22.22,0,0,1-.22-.23V39.19a.22.22,0,0,1,.22-.22h2a.21.21,0,0,1,.21.22Z"/><path class="cls-1" d="M98.05,54.55a1.05,1.05,0,0,1,1.19-1.18,1,1,0,0,1,1.16,1.18,1.21,1.21,0,0,1-.28.85,1.11,1.11,0,0,1-.88.32,1.14,1.14,0,0,1-.91-.32A1.21,1.21,0,0,1,98.05,54.55Z"/><path class="cls-1" d="M111.42,47.35a5.38,5.38,0,0,0-1-1.91,4.82,4.82,0,0,0-1.69-1.29,6.19,6.19,0,0,0-4.73,0,4.82,4.82,0,0,0-1.69,1.29,5.38,5.38,0,0,0-1,1.91,8.59,8.59,0,0,0-.32,2.37,8.49,8.49,0,0,0,.32,2.37,5.42,5.42,0,0,0,1,1.92A4.8,4.8,0,0,0,104,55.29a6.31,6.31,0,0,0,4.73,0A4.8,4.8,0,0,0,110.41,54a5.34,5.34,0,0,0,1-1.92,8.94,8.94,0,0,0,0-4.74m-2.21,2.37a5.43,5.43,0,0,1-.71,3,2.71,2.71,0,0,1-4.28,0,5.52,5.52,0,0,1-.7-3,5.45,5.45,0,0,1,.7-3,2.72,2.72,0,0,1,4.28,0,5.36,5.36,0,0,1,.71,3"/><path class="cls-2" d="M120.64,44.15a.2.2,0,0,0-.11-.27,6.28,6.28,0,0,0-1.25-.22,3.81,3.81,0,0,0-1.93.31,3.48,3.48,0,0,0-1.26.93V44a.21.21,0,0,0-.21-.22H114a.21.21,0,0,0-.21.22V55.13a.23.23,0,0,0,.23.23h2a.23.23,0,0,0,.22-.23V49.57a6.68,6.68,0,0,1,.25-2,2.79,2.79,0,0,1,.65-1.1A2.34,2.34,0,0,1,118,46a3.47,3.47,0,0,1,1-.15,4.23,4.23,0,0,1,.82.1c.14,0,.22-.07.27-.2C120.21,45.37,120.57,44.35,120.64,44.15Z"/><path class="cls-1" d="M128.08,53.91a4.36,4.36,0,0,1,2.85.84,2.79,2.79,0,0,1,.88,2.19,2.92,2.92,0,0,1-.46,1.62,4.22,4.22,0,0,1-1.28,1.24,6.51,6.51,0,0,1-1.93.8,10.31,10.31,0,0,1-2.42.27,6.81,6.81,0,0,1-3.47-.71,2.4,2.4,0,0,1-1.19-2.23,2.85,2.85,0,0,1,.48-1.62,3.63,3.63,0,0,1,1.26-1.14,2.78,2.78,0,0,1-.74-.71,1.93,1.93,0,0,1-.29-1.08,2.69,2.69,0,0,1,.36-1.41,3.77,3.77,0,0,1,1-1.06,4,4,0,0,1-1.17-1.31,4.05,4.05,0,0,1-.13-3.39,3.65,3.65,0,0,1,.89-1.27,4,4,0,0,1,1.45-.85,5.74,5.74,0,0,1,2-.31,5.4,5.4,0,0,1,1.8.28,5.3,5.3,0,0,1,1.38.73,3.57,3.57,0,0,1,1.19-.58A5.33,5.33,0,0,1,132,44a.13.13,0,0,1,.15.11,5.13,5.13,0,0,1,.06.81,4.52,4.52,0,0,1,0,.51c0,.12,0,.25,0,.37a.19.19,0,0,1-.19.16h-1.82a2.9,2.9,0,0,1,.37.82,3.42,3.42,0,0,1,.14,1,3.94,3.94,0,0,1-.33,1.64,3.85,3.85,0,0,1-.94,1.25,4.32,4.32,0,0,1-1.45.79,5.66,5.66,0,0,1-1.83.28,6.35,6.35,0,0,1-1.64-.2,2.47,2.47,0,0,0-.61.54,1.24,1.24,0,0,0-.29.78,1,1,0,0,0,.28.7,1.92,1.92,0,0,0,1.29.32Zm-3,1.75a1.82,1.82,0,0,0-1.49.53,1.92,1.92,0,0,0-.5,1.32,1.48,1.48,0,0,0,.2.8,1.44,1.44,0,0,0,.56.5,3.06,3.06,0,0,0,.87.26,7.24,7.24,0,0,0,1.09.08,5.44,5.44,0,0,0,2.76-.59,1.7,1.7,0,0,0,1-1.47,1.24,1.24,0,0,0-.42-1,2.54,2.54,0,0,0-1.54-.38Zm1-5.52a2.18,2.18,0,0,0,1.76-.67,2.45,2.45,0,0,0,.58-1.7,2.55,2.55,0,0,0-.58-1.73,2.65,2.65,0,0,0-3.52,0,2.64,2.64,0,0,0-.56,1.73,2.54,2.54,0,0,0,.56,1.7A2.16,2.16,0,0,0,126.12,50.14Z"/></g></g></svg>