<svg xmlns="http://www.w3.org/2000/svg" viewBox="0 0 150.24 63.39"><defs><style>.cls-1{fill:#56565a;}</style></defs><title>SurveyMonkey</title><g id="Layer_2" data-name="Layer 2"><g id="Layer_1-2" data-name="Layer 1"><path class="cls-1" d="M0,55.78l1.58-1.87a6.86,6.86,0,0,0,4.7,1.93c1.62,0,2.64-.74,2.64-1.87v0c0-1.07-.59-1.64-3.36-2.28-3.17-.77-5-1.71-5-4.45v-.05c0-2.55,2.13-4.32,5.09-4.32A8.3,8.3,0,0,1,11.1,44.7l-1.41,2a6.71,6.71,0,0,0-4-1.54c-1.53,0-2.42.79-2.42,1.77v0c0,1.15.68,1.66,3.53,2.35,3.15.76,4.79,1.89,4.79,4.36v0c0,2.79-2.19,4.46-5.32,4.46A9.18,9.18,0,0,1,0,55.78"/><path class="cls-1" d="M13.26,53.86V46.71h2.58V53.1c0,1.74.87,2.74,2.41,2.74a2.5,2.5,0,0,0,2.53-2.79V46.71h2.58V58H20.78V56.79a4.43,4.43,0,0,1-3.51,1.4c-2.54,0-4-1.71-4-4.33"/><path class="cls-1" d="M26.11,46.71h2.58v1.87c.7-1.68,2-2.17,4-2.09v2.29h-.15c-2.25,0-3.83,1.51-3.83,4.89V58H26.11Z"/><polygon class="cls-1" points="33.59 46.71 36.36 46.71 39.39 54.53 42.43 46.71 45.14 46.71 40.54 58.04 38.22 58.04 33.59 46.71"/><path class="cls-1" d="M53.48,51.54c-.17-1.66-1.15-3-2.85-3a3,3,0,0,0-2.92,3Zm-8.33.83v0a5.58,5.58,0,0,1,5.5-5.86c3.58,0,5.39,2.81,5.39,6.05,0,.23,0,.47,0,.73H47.73A3.14,3.14,0,0,0,51,56.1a4.07,4.07,0,0,0,3-1.34l1.52,1.34a5.7,5.7,0,0,1-4.6,2.11,5.62,5.62,0,0,1-5.78-5.84"/><polygon class="cls-1" points="69.7 43.04 72.48 43.04 77.02 50.65 81.56 43.04 84.35 43.04 84.35 57.95 81.73 57.95 81.73 47.26 77.02 54.84 76.94 54.84 72.27 47.3 72.27 57.95 69.7 57.95 69.7 43.04"/><path class="cls-1" d="M95.61,52.39v0a3.48,3.48,0,0,0-3.45-3.62,3.38,3.38,0,0,0-3.39,3.58v0A3.49,3.49,0,0,0,92.2,56a3.39,3.39,0,0,0,3.41-3.58m-9.42,0v0a6,6,0,0,1,12,0v0a6,6,0,0,1-12,0"/><polygon class="cls-1" points="112.6 42.41 115.18 42.41 115.18 51.69 119.84 46.71 122.97 46.71 118.5 51.29 123.12 57.95 120.14 57.95 116.75 53.1 115.18 54.74 115.18 57.95 112.6 57.95 112.6 42.41"/><path class="cls-1" d="M131.24,51.54c-.17-1.66-1.15-3-2.85-3a3,3,0,0,0-2.92,3Zm-8.33.83v0a5.58,5.58,0,0,1,5.5-5.86c3.57,0,5.39,2.81,5.39,6.05,0,.23,0,.47-.05.73h-8.26a3.14,3.14,0,0,0,3.24,2.85,4.08,4.08,0,0,0,3-1.34l1.51,1.34a5.86,5.86,0,0,1-10.37-3.73"/><polygon class="cls-1" points="65.09 46.71 61.98 54.38 58.88 46.71 56.2 46.71 60.63 57.69 58.32 63.39 61 63.39 67.77 46.71 65.09 46.71"/><path class="cls-1" d="M148.39,46.61a1.88,1.88,0,0,1,.91.24,1.67,1.67,0,0,1,.69.68,1.86,1.86,0,0,1,.25.93,1.91,1.91,0,0,1-.24.92,1.8,1.8,0,0,1-.69.68,1.87,1.87,0,0,1-.92.25,2,2,0,0,1-.92-.25,1.71,1.71,0,0,1-.68-.68,1.93,1.93,0,0,1-.25-.92,2,2,0,0,1,.25-.93,1.8,1.8,0,0,1,.69-.68,1.91,1.91,0,0,1,.91-.24m0,.31a1.55,1.55,0,0,0-.75.19,1.51,1.51,0,0,0-.58.57,1.6,1.6,0,0,0-.21.78,1.67,1.67,0,0,0,.2.77,1.51,1.51,0,0,0,.58.57,1.56,1.56,0,0,0,1.53,0,1.42,1.42,0,0,0,.57-.57,1.55,1.55,0,0,0,.2-.77,1.59,1.59,0,0,0-.2-.78,1.51,1.51,0,0,0-.58-.57,1.61,1.61,0,0,0-.76-.19"/><path class="cls-1" d="M148.51,48.45c.26,0,.42-.14.42-.35h0c0-.22-.16-.35-.43-.35H148v.7Zm-.9-1h.92a.84.84,0,0,1,.6.21.63.63,0,0,1,.17.45h0a.62.62,0,0,1-.49.63l.56.78h-.43l-.51-.72H148v.72h-.36Z"/><polygon class="cls-1" points="142.85 46.71 139.74 54.38 136.64 46.71 133.96 46.71 138.39 57.69 136.08 63.39 138.76 63.39 145.53 46.71 142.85 46.71"/><path class="cls-1" d="M110,50.8V58H107.4V51.56c0-1.74-.88-2.74-2.41-2.74a2.5,2.5,0,0,0-2.54,2.79V58H99.88V46.71h2.57v1.16a4.45,4.45,0,0,1,3.52-1.4c2.53,0,4,1.71,4,4.33"/><path class="cls-1" d="M92.94,27.05a1.7,1.7,0,0,1-1.14-.44A26.41,26.41,0,0,0,92,23.92a1.78,1.78,0,0,1,1-.29,1.71,1.71,0,1,1,0,3.42m-37.72,0a1.71,1.71,0,0,1,0-3.42,1.78,1.78,0,0,1,1,.29,26.41,26.41,0,0,0,.18,2.69,1.7,1.7,0,0,1-1.14.44m37.61-7.51a6.3,6.3,0,0,0-1.39.17A17.88,17.88,0,0,0,77.28,6.52l-.9-.13A5.86,5.86,0,0,1,79,1l-.4-1s-4.84,1.5-5.4,5.65C73,4.52,70.7,3.11,69.59,2.84l-.56.9a3.89,3.89,0,0,1,1.84,2.78h0A17.89,17.89,0,0,0,56.72,19.71a6.37,6.37,0,0,0-1.39-.17,5.8,5.8,0,1,0,0,11.6,6,6,0,0,0,2.12-.4,17.83,17.83,0,0,0,1.88,3.5L64.15,31l0-.06a11.77,11.77,0,0,1-2.19-6.44c-.14-2.64.5-5.27,2.19-6.81,3.49-3,7.28-1.62,9.65,1.23h.64c2.37-2.85,6.16-4.2,9.65-1.23,1.68,1.54,2.33,4.17,2.19,6.81a11.85,11.85,0,0,1-2.19,6.44L84,31l4.82,3.24a17.83,17.83,0,0,0,1.88-3.5,6,6,0,0,0,2.12.4,5.8,5.8,0,0,0,0-11.6"/></g></g></svg>