<svg xmlns="http://www.w3.org/2000/svg" viewBox="0 0 151.99 35.37"><defs><style>.cls-1{fill:#56565a;}</style></defs><title>Yahoo</title><g id="Layer_2" data-name="Layer 2"><g id="Layer_1-2" data-name="Layer 1"><path class="cls-1" d="M151.94,1.93a5.05,5.05,0,0,0-.3-.71A3,3,0,0,0,151,.71l-.11,0a.33.33,0,0,1-.1-.06l-.91-.3a.2.2,0,0,1-.17,0h-.09l-.15,0H149c-.31.1-.51.2-.82.3a3.89,3.89,0,0,0-.61.61,1.94,1.94,0,0,0-.3.91,2.84,2.84,0,0,0,0,.92c0,.06,0,.1.06.15-.3,3.36-.68,8.38-.88,10.42-.57,7.14-1.32,11.78-1.49,13.51l-.23.21h.21s0,.07,0,.1l.09-.1h.52a4.55,4.55,0,0,1,.91.3h0s0-.08,0-.12l.08,0a11.73,11.73,0,0,0,.3-1.62c.41-2.24,1.12-6.41,2.54-12,.51-2.23,2.54-10.87,2.54-10.87v-.2A2.84,2.84,0,0,0,151.94,1.93Z"/><path class="cls-1" d="M145,27.44s0-.06,0-.09S145,27.39,145,27.44Z"/><path class="cls-1" d="M136.9,5.69a16.09,16.09,0,0,0-5.49-3.15,22.5,22.5,0,0,0-14,0c-.31.1-.51.2-.82.31a15.59,15.59,0,0,0-4.67,2.84,13,13,0,0,0-3.56,5.08A17.73,17.73,0,0,0,107,17.58v.1a16.33,16.33,0,0,0,1.32,6.81,13.86,13.86,0,0,0,3.56,5.09,13.2,13.2,0,0,0,5.49,3,24.6,24.6,0,0,0,14,0c.21-.1.31-.1.51-.2h0a14.22,14.22,0,0,0,5-3,13.08,13.08,0,0,0,3.56-5.08,17.73,17.73,0,0,0,1.32-6.81,16.39,16.39,0,0,0-1.32-6.81A14.84,14.84,0,0,0,136.9,5.69ZM119.32,31a10.81,10.81,0,0,1-4.07-2.64,12.86,12.86,0,0,1-2.74-4.48,20.11,20.11,0,0,1-1-6.4,17.66,17.66,0,0,1,1-6.4,11.07,11.07,0,0,1,2.74-4.47,10.53,10.53,0,0,1,2.34-1.83l.84-.43a5.72,5.72,0,0,1,.68-.28,13.54,13.54,0,0,1,5-.82,16.65,16.65,0,0,1,5.09.82,10.85,10.85,0,0,1,4.06,2.64A14,14,0,0,1,136,11.18a20.12,20.12,0,0,1,1,6.4,15.86,15.86,0,0,1-.91,6.41,11.09,11.09,0,0,1-2.75,4.47,9.81,9.81,0,0,1-2.64,1.93,8.68,8.68,0,0,1-1.42.61,13.63,13.63,0,0,1-5,.81A16.22,16.22,0,0,1,119.32,31Z"/><path class="cls-1" d="M104.28,11.48a12.7,12.7,0,0,0-3-4.47,14.87,14.87,0,0,0-4.78-2.84,19.19,19.19,0,0,0-6.1-.92,19,19,0,0,0-6,.92A13.27,13.27,0,0,0,79.58,7l-.08.09h0a12.52,12.52,0,0,0-3,4.48,15.91,15.91,0,0,0-1.12,6.09,16.73,16.73,0,0,0,1.12,6.1,12.48,12.48,0,0,0,3,4.47A13,13,0,0,0,84.25,31a20.9,20.9,0,0,0,12.2,0,13.09,13.09,0,0,0,4.78-2.75,12.61,12.61,0,0,0,3-4.47,16,16,0,0,0,1.11-6.1v-.1A16.38,16.38,0,0,0,104.28,11.48ZM82.83,27.24a10.62,10.62,0,0,1-2.23-4,18.59,18.59,0,0,1-.82-5.69,19.17,19.17,0,0,1,.82-5.69,9.38,9.38,0,0,1,2.23-4,8.68,8.68,0,0,1,3.36-2.34,10.61,10.61,0,0,1,4.06-.71,11.18,11.18,0,0,1,4.17.71,10.43,10.43,0,0,1,3.35,2.34,10.59,10.59,0,0,1,2.24,4,18.7,18.7,0,0,1,.81,5.69,18.15,18.15,0,0,1-.81,5.69,9.43,9.43,0,0,1-2.24,4,8.75,8.75,0,0,1-3.35,2.34,11,11,0,0,1-4.17.71,10.8,10.8,0,0,1-4.06-.71A10.75,10.75,0,0,1,82.83,27.24Z"/><path class="cls-1" d="M18.29,16.36c1.12-1.93,2.14-3.86,3.05-5.28a22.35,22.35,0,0,1,1.93-3.76c.41-.71.82-1.32,1.12-1.83,1-1.83,2-3.25,2.54-4.07.41-.51.61-.91.92-1.32L28,0h-.1a4.59,4.59,0,0,1-.51.1c-.28.06-.6.11-.95.15s-.39,0-.58,0h-.24A7.73,7.73,0,0,1,23.38,0h-.11V0l-.09,0,.07.05h0l-.07,0c-2,3.51-8.37,13.92-9.17,15.4-.16-.28-.94-1.46-1.91-3.1C9.86,8.64,6.1,2.54,4.78,0h-.1l-.1,0V0l0,0a6.58,6.58,0,0,1-.86.18l-.22,0Q3,.29,2.59.3H2.4a7.33,7.33,0,0,1-1-.07H1.28A8,8,0,0,1,.2,0l0,0L0,0C.3.51.51.81.91,1.42S2.34,3.56,3.46,5.49C4.37,7,5.79,9.35,6.71,11.08s2,3.56,3.05,5.28c1.22,2.24,2,3.56,2.23,4v1.12c0,1.82,0,3.76-.1,5.48s-.1,6.44-.2,8.2c-.06.06-.1.11-.1.14l.3-.07v.07A7.68,7.68,0,0,1,14.13,35a9.84,9.84,0,0,1,1.1.07c.32.07.62.15.93.24,0,0,0,0,0,0a.43.43,0,0,1,.14.14v-.13l.11,0c0-.92-.1-2.75-.1-4.58,0-1.42-.1-2.84-.1-3.66-.1-1.72-.1-3.65-.1-5.48V20.22C16.67,19.11,17.38,17.79,18.29,16.36Z"/><path class="cls-1" d="M48,30.69C45,25,38.72,9.25,36.69,4.27a4.36,4.36,0,0,1-.2-.61l-.2.06s0-.05,0-.06h0a4.42,4.42,0,0,1-1.52.3,8.52,8.52,0,0,1-1.42-.2h0l-.17-.1,0,0-.08,0a.08.08,0,0,0,.06.09,1.3,1.3,0,0,0-.16.52C31.1,8.94,24.7,24.9,21.65,30.69c-.09.19-.34.6-.39.76l-.12.06.11,0s0,0,0,0l.07,0-.07.13a8.82,8.82,0,0,1,2.34-.31,8.14,8.14,0,0,1,2.24.31h.1c.2-.41.71-1.83,1.52-3.86a19.54,19.54,0,0,1,1-3.17c.16-.4.32-.8.49-1.2H40.49c1.6,4,3,7.38,3.21,8l-.2.12a2.47,2.47,0,0,1,.29-.06s0,0,0,.06a8.18,8.18,0,0,1,2.18-.3h.23l.61,0a7.17,7.17,0,0,1,1.35.26.6.6,0,0,0-.14-.07l.12,0,.13.05,0,0,.12,0A6.24,6.24,0,0,1,48,30.69ZM29.68,21.45c2.23-5.7,4.67-11.9,5-13.12.2,1,1.83,5.29,5,13.12-.92,0-4.07.1-5,.1S30.59,21.45,29.68,21.45Z"/><path class="cls-1" d="M74,3.66a8.82,8.82,0,0,1-2.34.3,9.08,9.08,0,0,1-1.17-.07l-.11,0a6.23,6.23,0,0,1-.65-.13l-.3-.08,0,0-.16,0h0v.61c.11,1.63.11,3.25.21,4.78.1,1.72.1,3.45.1,5.18v2.34c-1.22,0-2.44,0-3.56.1H57.73c-1.09,0-2.27,0-3.46-.1V14.23c0-1.73,0-3.46.1-5.18s.11-3.56.21-5.39l-.1,0v0a8.5,8.5,0,0,1-2.29.3,8.45,8.45,0,0,1-2.29-.3l.06,0-.16,0h0c0,1.12.1,2.24.1,3.45A11.92,11.92,0,0,0,50,9.05c.11,1.72.11,3.45.11,5.18v6.91c0,1.73,0,3.56-.11,5.28-.1,1.94-.1,3.56-.2,5.09l.1,0v0l.06,0h0l-.06,0a8.45,8.45,0,0,1,2.29-.3,9.06,9.06,0,0,1,2.29.3v0l.1,0-.1-.06V31.4c-.11-1.62-.21-3.35-.21-5.08s-.1-3.45-.1-5.18V18.5H69.62v2.67c0,.81,0,1.61,0,2.41,0,.09,0,.19,0,.28,0,.7,0,1.39-.07,2.08,0,.1,0,.19,0,.28-.1,1.73-.1,3.36-.21,5.08v.1h0v.11l.28-.16h0l-.28.16a9,9,0,0,1,2.34-.31,8.43,8.43,0,0,1,2.34.31c-.1-1.53-.1-3.26-.2-5.09s-.11-3.45-.11-5.28V14.23c0-1.73,0-3.56.11-5.18q0-.77.06-1.56c0-.13,0-.26,0-.38,0-1.11.1-2.33.1-3.45Z"/><path class="cls-1" d="M146.66,31.61a3,3,0,0,0-.61-.51l-.92-.3h-.91c-.31.1-.51.2-.81.3l-.61.61a1.21,1.21,0,0,0-.31.91,2.82,2.82,0,0,0,0,.92,1.57,1.57,0,0,0,.41.71,2.54,2.54,0,0,0,.61.51l.91.3h.92a1.38,1.38,0,0,0,.81-.3l.61-.61a1.26,1.26,0,0,0,.3-.92,2.51,2.51,0,0,0,0-.91A1.59,1.59,0,0,0,146.66,31.61Z"/></g></g></svg>